<?xml version="1.0" encoding="UTF-8" standalone="no"?>
<!-- Created with Inkscape (http://www.inkscape.org/) -->

<svg
   width="104.99942mm"
   height="80.90966mm"
   viewBox="0 0 104.99942 80.90966"
   version="1.1"
   id="svg1"
   inkscape:version="1.3 (0e150ed6c4, 2023-07-21)"
   sodipodi:docname="logo_text.svg"
   xmlns:inkscape="http://www.inkscape.org/namespaces/inkscape"
   xmlns:sodipodi="http://sodipodi.sourceforge.net/DTD/sodipodi-0.dtd"
   xmlns="http://www.w3.org/2000/svg"
   xmlns:svg="http://www.w3.org/2000/svg">
  <sodipodi:namedview
     id="namedview1"
     pagecolor="#505050"
     bordercolor="#eeeeee"
     borderopacity="1"
     inkscape:showpageshadow="0"
     inkscape:pageopacity="0"
     inkscape:pagecheckerboard="0"
     inkscape:deskcolor="#505050"
     inkscape:document-units="mm"
     inkscape:zoom="0.37905794"
     inkscape:cx="-184.66834"
     inkscape:cy="-19.785893"
     inkscape:window-width="1366"
     inkscape:window-height="715"
     inkscape:window-x="-8"
     inkscape:window-y="-8"
     inkscape:window-maximized="1"
     inkscape:current-layer="layer1" />
  <defs
     id="defs1">
    <clipPath
       clipPathUnits="userSpaceOnUse"
       id="clipPath2">
      <path
         d="M 0,595.276 H 841.89 V 0 H 0 Z"
         transform="translate(-113.9932,-438.21751)"
         id="path2" />
    </clipPath>
    <clipPath
       clipPathUnits="userSpaceOnUse"
       id="clipPath4">
      <path
         d="M 0,595.276 H 841.89 V 0 H 0 Z"
         transform="translate(-142.07031,-403.48211)"
         id="path4" />
    </clipPath>
    <clipPath
       clipPathUnits="userSpaceOnUse"
       id="clipPath6">
      <path
         d="M 0,595.276 H 841.89 V 0 H 0 Z"
         transform="translate(-218.98,-408.85621)"
         id="path6" />
    </clipPath>
    <clipPath
       clipPathUnits="userSpaceOnUse"
       id="clipPath8">
      <path
         d="M 0,595.276 H 841.89 V 0 H 0 Z"
         transform="translate(-228.9922,-403.48211)"
         id="path8" />
    </clipPath>
    <clipPath
       clipPathUnits="userSpaceOnUse"
       id="clipPath10">
      <path
         d="M 0,595.276 H 841.89 V 0 H 0 Z"
         transform="translate(-270.01371,-370.68531)"
         id="path10" />
    </clipPath>
    <clipPath
       clipPathUnits="userSpaceOnUse"
       id="clipPath12">
      <path
         d="M 0,595.276 H 841.89 V 0 H 0 Z"
         transform="translate(-317.95751,-419.93281)"
         id="path12" />
    </clipPath>
    <clipPath
       clipPathUnits="userSpaceOnUse"
       id="clipPath14">
      <path
         d="M 0,595.276 H 841.89 V 0 H 0 Z"
         transform="translate(-332.07131,-403.48211)"
         id="path14" />
    </clipPath>
    <clipPath
       clipPathUnits="userSpaceOnUse"
       id="clipPath16">
      <path
         d="M 0,595.276 H 841.89 V 0 H 0 Z"
         transform="translate(-391.48441,-388.58371)"
         id="path16" />
    </clipPath>
    <clipPath
       clipPathUnits="userSpaceOnUse"
       id="clipPath24">
      <path
         d="M 0,595.276 H 841.89 V 0 H 0 Z"
         transform="translate(-106.48,-344.60961)"
         id="path24" />
    </clipPath>
    <clipPath
       clipPathUnits="userSpaceOnUse"
       id="clipPath26">
      <path
         d="M 0,595.276 H 841.89 V 0 H 0 Z"
         transform="translate(-131.5537,-343.41531)"
         id="path26" />
    </clipPath>
    <clipPath
       clipPathUnits="userSpaceOnUse"
       id="clipPath28">
      <path
         d="M 0,595.276 H 841.89 V 0 H 0 Z"
         transform="translate(-145.8096,-334.21601)"
         id="path28" />
    </clipPath>
    <clipPath
       clipPathUnits="userSpaceOnUse"
       id="clipPath30">
      <path
         d="M 0,595.276 H 841.89 V 0 H 0 Z"
         transform="translate(-166.94871,-343.41531)"
         id="path30" />
    </clipPath>
    <clipPath
       clipPathUnits="userSpaceOnUse"
       id="clipPath32">
      <path
         d="M 0,595.276 H 841.89 V 0 H 0 Z"
         transform="translate(-175.3311,-343.41531)"
         id="path32" />
    </clipPath>
    <clipPath
       clipPathUnits="userSpaceOnUse"
       id="clipPath34">
      <path
         d="M 0,595.276 H 841.89 V 0 H 0 Z"
         transform="translate(-193.1187,-332.35181)"
         id="path34" />
    </clipPath>
    <clipPath
       clipPathUnits="userSpaceOnUse"
       id="clipPath36">
      <path
         d="M 0,595.276 H 841.89 V 0 H 0 Z"
         id="path36" />
    </clipPath>
    <clipPath
       clipPathUnits="userSpaceOnUse"
       id="clipPath38">
      <path
         d="M 0,595.276 H 841.89 V 0 H 0 Z"
         transform="translate(-215.647,-342.05881)"
         id="path38" />
    </clipPath>
    <clipPath
       clipPathUnits="userSpaceOnUse"
       id="clipPath40">
      <path
         d="M 0,595.276 H 841.89 V 0 H 0 Z"
         transform="translate(-237.37011,-343.68041)"
         id="path40" />
    </clipPath>
    <clipPath
       clipPathUnits="userSpaceOnUse"
       id="clipPath42">
      <path
         d="M 0,595.276 H 841.89 V 0 H 0 Z"
         transform="translate(-252.15331,-335.25361)"
         id="path42" />
    </clipPath>
    <clipPath
       clipPathUnits="userSpaceOnUse"
       id="clipPath44">
      <path
         d="M 0,595.276 H 841.89 V 0 H 0 Z"
         transform="translate(-274.20121,-334.21601)"
         id="path44" />
    </clipPath>
    <clipPath
       clipPathUnits="userSpaceOnUse"
       id="clipPath46">
      <path
         d="M 0,595.276 H 841.89 V 0 H 0 Z"
         transform="translate(-288.47751,-347.95921)"
         id="path46" />
    </clipPath>
    <clipPath
       clipPathUnits="userSpaceOnUse"
       id="clipPath48">
      <path
         d="M 0,595.276 H 841.89 V 0 H 0 Z"
         transform="translate(-320.92481,-344.60961)"
         id="path48" />
    </clipPath>
    <clipPath
       clipPathUnits="userSpaceOnUse"
       id="clipPath50">
      <path
         d="M 0,595.276 H 841.89 V 0 H 0 Z"
         id="path50" />
    </clipPath>
    <clipPath
       clipPathUnits="userSpaceOnUse"
       id="clipPath52">
      <path
         d="M 0,595.276 H 841.89 V 0 H 0 Z"
         transform="translate(-346.74461,-342.27171)"
         id="path52" />
    </clipPath>
    <clipPath
       clipPathUnits="userSpaceOnUse"
       id="clipPath54">
      <path
         d="M 0,595.276 H 841.89 V 0 H 0 Z"
         transform="translate(-359.67141,-343.68041)"
         id="path54" />
    </clipPath>
    <clipPath
       clipPathUnits="userSpaceOnUse"
       id="clipPath56">
      <path
         d="M 0,595.276 H 841.89 V 0 H 0 Z"
         transform="translate(-383.36771,-342.05881)"
         id="path56" />
    </clipPath>
    <clipPath
       clipPathUnits="userSpaceOnUse"
       id="clipPath18">
      <path
         d="M 0,595.276 H 841.89 V 0 H 0 Z"
         transform="translate(-175.2529,-504.90302)"
         id="path18" />
    </clipPath>
    <clipPath
       clipPathUnits="userSpaceOnUse"
       id="clipPath20">
      <path
         d="M 0,595.276 H 841.89 V 0 H 0 Z"
         transform="translate(-258.46921,-449.38941)"
         id="path20" />
    </clipPath>
    <clipPath
       clipPathUnits="userSpaceOnUse"
       id="clipPath22">
      <path
         d="M 0,595.276 H 841.89 V 0 H 0 Z"
         transform="translate(-245.3203,-474.51881)"
         id="path22" />
    </clipPath>
    <clipPath
       clipPathUnits="userSpaceOnUse"
       id="clipPath58">
      <path
         d="M 0,595.276 H 841.89 V 0 H 0 Z"
         transform="translate(-244.7119,-467.77711)"
         id="path58" />
    </clipPath>
    <clipPath
       clipPathUnits="userSpaceOnUse"
       id="clipPath60">
      <path
         d="M 0,595.276 H 841.89 V 0 H 0 Z"
         transform="translate(-262.96141,-432.21461)"
         id="path60" />
    </clipPath>
  </defs>
  <g
     inkscape:label="Layer 1"
     inkscape:groupmode="layer"
     id="layer1"
     transform="translate(-42.333333,-136.78958)">
    <g
       id="g2">
      <path
         id="path1"
         d="m 0,0 c 2,0.731 4.056,0.577 6.286,-0.468 2.244,-1.056 4.269,-3.329 6.02,-6.759 0.004,-0.007 0.008,-0.017 0.012,-0.024 1.07,-1.946 2.738,-2.491 4.579,-1.497 1.829,0.987 2.401,2.504 1.568,4.171 C 16.074,0.125 12.927,3.438 9.112,5.27 5.241,7.123 1.346,7.304 -2.437,5.807 -6.134,4.467 -9.024,1.98 -11.023,-1.59 c -1.988,-3.545 -2.72,-7.658 -2.178,-12.226 0.393,-3.295 2.155,-6.803 5.206,-10.386 0.754,-0.982 1.599,-1.98 2.523,-2.98 l 3.223,-3.333 c 1.254,-1.33 2.175,-2.325 2.786,-3.009 3.492,-3.71 6.277,-7.379 8.277,-10.904 1.956,-3.45 3.02,-7.407 3.165,-11.761 0.139,-4.346 -0.687,-7.638 -2.458,-9.782 -1.765,-2.138 -3.829,-3.209 -6.33,-3.276 -2.728,-0.131 -5.496,0.849 -8.234,2.928 -2.768,2.099 -4.89,5.247 -6.322,9.399 -0.79,1.97 -2.373,2.675 -4.343,1.933 -2.804,-1.051 -2.42,-3.107 -2.126,-3.937 1.838,-5.287 4.74,-9.467 8.625,-12.426 3.723,-2.838 7.755,-4.275 11.996,-4.275 0.216,0 0.434,0.003 0.652,0.011 4.538,0.158 8.318,2.038 11.235,5.587 2.886,3.512 4.272,8.186 4.118,13.894 -0.153,5.406 -1.412,10.276 -3.742,14.477 -2.294,4.136 -5.434,8.325 -9.34,12.459 l -6.031,6.253 c -0.873,0.873 -1.638,1.711 -2.27,2.486 -2.255,2.815 -3.537,5.354 -3.81,7.549 -0.416,3.193 0.032,5.994 1.318,8.296 C -3.715,-2.355 -1.996,-0.798 0,0"
         style="fill:#005d28;fill-opacity:1;fill-rule:nonzero;stroke:none"
         transform="matrix(0.35277776,0,0,-0.35277776,48.696269,177.37007)"
         clip-path="url(#clipPath2)" />
      <path
         id="path3"
         d="M 0,0 C 1.235,5.553 3.148,9.623 5.701,12.112 7.42,13.831 9.266,14.51 11.37,14.18 13.308,13.937 14.798,11.813 15.812,7.835 16.529,5.42 17.016,2.64 17.263,-0.437 15.284,-0.47 12.461,-0.424 8.848,-0.299 7.091,-0.239 2.275,-0.075 0,0 m 23.356,-20.084 c -2.112,0.218 -3.484,-0.763 -3.787,-2.775 -0.635,-4.797 -2.069,-8.238 -4.239,-10.205 -1.693,-1.433 -3.598,-1.84 -5.844,-1.252 -2.509,0.612 -4.855,2.419 -6.971,5.37 -2.153,2.997 -3.425,6.865 -3.78,11.489 -0.27,3.857 -0.194,7.603 0.226,11.146 1.103,-0.086 2.879,-0.14 5.732,-0.23 l 4.092,-0.126 c 4.805,-0.149 8.838,-0.11 11.99,0.112 1.394,0.011 2.141,0.643 2.424,1.059 0.628,0.631 0.947,1.383 0.947,2.264 C 23.995,1.877 23.42,6.193 22.437,9.599 20.551,16.122 17.216,19.8 12.517,20.531 8.064,21.168 4.123,19.841 0.785,16.583 -2.9,12.897 -5.538,7.262 -7.058,-0.19 c -1.05,-5.77 -1.392,-11.699 -1.016,-17.621 0.381,-5.801 2.073,-10.823 5.026,-14.924 2.976,-4.141 6.586,-6.794 10.747,-7.893 1.212,-0.293 2.389,-0.439 3.53,-0.439 3.199,0 6.111,1.15 8.687,3.431 3.511,3.042 5.682,7.783 6.453,14.106 0.205,1.942 -0.893,3.198 -3.013,3.446"
         style="fill:#005d28;fill-opacity:1;fill-rule:nonzero;stroke:none"
         transform="matrix(0.35277776,0,0,-0.35277776,58.601247,189.62394)"
         clip-path="url(#clipPath4)" />
      <path
         id="path5"
         d="m 0,0 c -0.114,2.064 -0.446,4.014 -0.99,5.807 -0.951,3.012 -2.552,5.333 -4.76,6.901 -2.216,1.571 -4.735,2.291 -7.467,2.123 -2.568,-0.164 -4.979,-1.133 -7.166,-2.883 -1.149,-0.918 -2.028,-1.72 -2.66,-2.429 -1.185,2.002 -2.658,3.45 -4.407,4.327 -2.752,1.33 -5.611,1.11 -8.494,-0.661 -1.406,-0.862 -2.528,-1.64 -3.382,-2.34 -0.243,1.622 -1.438,2.538 -3.362,2.538 -2.164,0 -3.406,-1.161 -3.406,-3.183 v -53.379 c 0,-2.025 1.242,-3.186 3.406,-3.186 2.166,0 3.408,1.161 3.408,3.186 V -2.15 c 0.042,0.107 0.077,0.222 0.097,0.347 0.563,1.866 1.521,3.749 2.845,5.596 1.324,1.848 2.649,3.162 3.948,3.915 1.242,0.743 1.823,0.485 1.956,0.422 0.501,-0.267 1.511,-1.218 2.666,-4.59 1.225,-3.602 1.845,-10.584 1.845,-20.754 0,-2.946 -0.073,-6.949 -0.223,-12.232 -0.147,-5.131 -0.223,-8.665 -0.223,-10.501 0,-2.025 1.242,-3.186 3.407,-3.186 2.165,0 3.406,1.161 3.406,3.186 0,1.785 0.075,5.301 0.223,10.446 0.148,5.196 0.224,9.33 0.224,12.276 0.071,6.568 -0.183,11.929 -0.753,15.941 0.125,0.366 0.283,1.017 0.505,2.353 0.213,0.92 0.426,1.666 0.633,2.219 0.6,1.605 1.469,2.849 2.582,3.7 1.118,0.855 2.27,1.353 3.425,1.482 1.106,0.117 2.086,-0.148 3.009,-0.825 0.935,-0.687 1.679,-1.942 2.221,-3.766 0.415,-1.244 0.66,-2.694 0.731,-4.308 0.073,-1.681 0.054,-3.732 -0.055,-6.098 -0.113,-2.435 -0.168,-4.216 -0.168,-5.339 v -15.489 c 0,-6.479 0.075,-11.702 0.222,-15.49 0,-0.872 0.386,-1.663 1.113,-2.284 1.42,-1.223 3.584,-1.211 4.802,0.212 0.597,0.694 0.9,1.393 0.898,2.129 -0.147,2.412 -0.203,7.6 -0.165,15.429 0.036,7.82 0.017,13.043 -0.056,15.493 0,0.81 0.056,2.469 0.166,4.973 C 0.114,-4.348 0.114,-2.028 0,0"
         style="fill:#005d28;fill-opacity:1;fill-rule:nonzero;stroke:none"
         transform="matrix(0.35277776,0,0,-0.35277776,85.733278,187.72808)"
         clip-path="url(#clipPath6)" />
      <path
         id="path7"
         d="m 0,0 c 1.235,5.553 3.149,9.623 5.702,12.112 1.717,1.719 3.563,2.398 5.669,2.068 1.937,-0.243 3.427,-2.367 4.441,-6.345 C 16.529,5.42 17.016,2.64 17.263,-0.437 15.287,-0.47 12.462,-0.424 8.848,-0.299 7.091,-0.239 2.275,-0.075 0,0 m 23.357,-20.084 c -2.106,0.218 -3.485,-0.763 -3.787,-2.775 -0.635,-4.797 -2.07,-8.238 -4.24,-10.205 -1.693,-1.433 -3.598,-1.84 -5.843,-1.252 -2.51,0.612 -4.856,2.419 -6.972,5.37 -2.153,2.997 -3.425,6.865 -3.779,11.489 -0.271,3.857 -0.195,7.603 0.225,11.146 1.103,-0.086 2.879,-0.14 5.732,-0.23 l 4.092,-0.126 c 4.805,-0.149 8.839,-0.11 11.99,0.112 1.394,0.011 2.142,0.643 2.424,1.059 0.628,0.631 0.947,1.383 0.947,2.264 C 23.995,1.877 23.42,6.193 22.438,9.599 20.551,16.122 17.217,19.8 12.517,20.531 8.066,21.168 4.123,19.841 0.785,16.583 -2.9,12.897 -5.537,7.262 -7.057,-0.19 c -1.051,-5.77 -1.392,-11.699 -1.017,-17.621 0.382,-5.801 2.073,-10.823 5.026,-14.924 2.976,-4.141 6.586,-6.794 10.747,-7.893 1.212,-0.293 2.389,-0.439 3.53,-0.439 3.199,0 6.111,1.15 8.687,3.431 3.512,3.042 5.682,7.783 6.454,14.106 0.204,1.942 -0.894,3.198 -3.013,3.446"
         style="fill:#005d28;fill-opacity:1;fill-rule:nonzero;stroke:none"
         transform="matrix(0.35277776,0,0,-0.35277776,89.26536,189.62394)"
         clip-path="url(#clipPath8)" />
      <path
         id="path9"
         d="m 0,0 c -1.665,1.2 -2.854,3.12 -3.554,5.773 -1.12,3.29 -1.115,6.998 0.016,11.025 1.143,4.077 2.95,7.551 5.348,10.302 2.048,2.175 4.048,3.276 5.952,3.276 0.105,0 0.209,-0.001 0.314,-0.009 2.062,-0.127 4.196,-1.994 6.346,-5.551 C 14.42,22.354 14.383,16.615 14.312,7.593 L 14.242,7.309 C 13.335,4.379 12.008,2.146 10.298,0.673 8.606,-0.78 6.841,-1.584 5.088,-1.713 3.368,-1.762 1.694,-1.221 0,0 m 15.823,49.775 c -2.157,2.119 -4.641,3.316 -7.335,3.553 -2.898,0.401 -5.64,-0.25 -8.133,-1.938 -2.436,-1.65 -4.42,-4.065 -5.899,-7.179 -0.004,-0.007 -0.007,-0.015 -0.009,-0.023 -0.383,-0.856 -0.433,-1.656 -0.151,-2.376 0.312,-0.797 1.017,-1.436 2.096,-1.898 2.034,-0.87 3.71,-0.248 4.589,1.711 0.962,2.131 2.053,3.629 3.241,4.456 1.151,0.8 2.25,1.129 3.36,1.005 1.111,-0.125 2.232,-0.746 3.331,-1.843 1.134,-1.135 1.987,-2.788 2.552,-4.967 0.457,-1.422 0.732,-3.036 0.824,-4.817 -1.519,0.956 -3.562,1.495 -6.101,1.607 -4.313,0.254 -8.313,-1.747 -11.912,-5.891 -3.061,-3.443 -5.287,-7.794 -6.618,-12.931 -1.339,-5.163 -1.355,-10.004 -0.046,-14.389 1.168,-3.894 3.193,-6.964 6.017,-9.121 2.741,-2.094 5.855,-3.153 9.284,-3.153 0.121,0 0.244,0.002 0.367,0.005 3.914,0.174 6.821,1.002 8.679,2.469 0.445,-1.23 1.599,-1.913 3.313,-1.913 2.237,0 3.519,1.161 3.519,3.184 0,3.414 0.036,8.574 0.111,15.48 0.074,6.913 0.112,12.079 0.112,15.499 v 6.966 c 0,4.235 -0.192,7.062 -0.597,8.688 -0.935,3.114 -2.48,5.743 -4.594,7.816"
         style="fill:#005d28;fill-opacity:1;fill-rule:nonzero;stroke:none"
         transform="matrix(0.35277776,0,0,-0.35277776,103.73684,201.19393)"
         clip-path="url(#clipPath10)" />
      <path
         id="path11"
         d="m 0,0 c -2.511,2.67 -5.256,3.857 -8.118,3.53 -2.161,-0.149 -4.164,-1.102 -5.959,-2.83 -0.294,1.528 -1.473,2.386 -3.336,2.386 -2.164,0 -3.406,-1.16 -3.406,-3.183 v -11.166 c -0.222,-0.564 -0.221,-1.135 0,-1.652 v -41.119 c 0,-2.023 1.242,-3.183 3.406,-3.183 2.166,0 3.408,1.16 3.408,3.183 v 41.86 c 1.132,3.419 2.617,6.096 4.426,7.973 0.792,0.853 1.521,1.314 2.164,1.368 0.586,0.051 1.416,-0.448 2.347,-1.375 1.193,-1.26 2.008,-3.372 2.423,-6.275 0.215,-1.514 0.325,-4.355 0.325,-8.448 0,-2.023 1.241,-3.183 3.407,-3.183 2.164,0 3.406,1.16 3.406,3.183 0,4.316 -0.112,7.343 -0.344,9.278 C 3.527,-5.458 2.128,-2.208 0,0"
         style="fill:#005d28;fill-opacity:1;fill-rule:nonzero;stroke:none"
         transform="matrix(0.35277776,0,0,-0.35277776,120.65034,183.8205)"
         clip-path="url(#clipPath12)" />
      <path
         id="path13"
         d="M 0,0 C 1.235,5.553 3.148,9.623 5.701,12.112 7.42,13.831 9.269,14.51 11.37,14.18 13.308,13.937 14.798,11.813 15.812,7.835 16.529,5.42 17.016,2.64 17.263,-0.437 15.286,-0.47 12.462,-0.424 8.848,-0.299 7.091,-0.239 2.275,-0.075 0,0 m 23.356,-20.084 c -2.107,0.218 -3.484,-0.763 -3.787,-2.775 -0.635,-4.797 -2.069,-8.238 -4.239,-10.205 -1.692,-1.433 -3.6,-1.84 -5.844,-1.252 -2.509,0.612 -4.855,2.419 -6.971,5.37 -2.153,2.997 -3.425,6.865 -3.78,11.489 -0.27,3.857 -0.194,7.603 0.226,11.146 1.103,-0.086 2.879,-0.14 5.732,-0.23 l 4.092,-0.126 c 4.805,-0.149 8.838,-0.11 11.99,0.112 1.394,0.011 2.141,0.643 2.424,1.059 0.628,0.631 0.947,1.383 0.947,2.264 C 23.995,1.877 23.42,6.193 22.437,9.599 20.551,16.122 17.216,19.8 12.517,20.531 8.064,21.168 4.122,19.841 0.785,16.583 -2.9,12.897 -5.538,7.262 -7.058,-0.19 c -1.05,-5.77 -1.392,-11.699 -1.016,-17.621 0.381,-5.801 2.073,-10.823 5.026,-14.924 2.976,-4.141 6.586,-6.794 10.747,-7.893 1.212,-0.293 2.389,-0.439 3.53,-0.439 3.199,0 6.111,1.15 8.687,3.431 3.511,3.042 5.682,7.783 6.453,14.106 0.205,1.942 -0.893,3.198 -3.013,3.446"
         style="fill:#005d28;fill-opacity:1;fill-rule:nonzero;stroke:none"
         transform="matrix(0.35277776,0,0,-0.35277776,125.62938,189.62394)"
         clip-path="url(#clipPath14)" />
      <path
         id="path15"
         d="m 0,0 c -1.872,3.473 -4.629,6.736 -8.198,9.7 -0.927,0.77 -2.306,1.74 -4.167,2.931 -1.695,1.25 -2.911,2.17 -3.622,2.741 -2.453,2.112 -3.12,3.463 -3.246,4.221 -0.339,2.099 -0.048,3.917 0.889,5.557 0.937,1.641 2.185,2.84 3.806,3.622 1.156,0.729 2.431,0.827 3.899,0.3 1.509,-0.546 2.816,-1.84 3.885,-3.842 0.005,-0.009 0.01,-0.018 0.015,-0.028 1.069,-1.847 2.726,-2.369 4.551,-1.431 1.845,0.946 2.424,2.446 1.584,4.126 -1.816,3.553 -4.415,5.941 -7.724,7.098 -3.338,1.165 -6.505,0.935 -9.358,-0.651 -2.845,-1.344 -5.088,-3.445 -6.665,-6.245 -1.585,-2.811 -2.148,-5.957 -1.673,-9.355 0.404,-2.758 2.242,-5.508 5.508,-8.212 0.823,-0.599 2.136,-1.5 3.89,-2.667 1.755,-1.315 3.091,-2.355 4.009,-3.118 2.921,-2.209 5.118,-4.654 6.533,-7.269 1.376,-2.548 1.755,-5.793 1.123,-9.655 -0.479,-3.139 -1.604,-5.363 -3.345,-6.612 -1.78,-1.274 -3.728,-1.746 -5.945,-1.446 -2.217,0.304 -4.2,1.387 -5.892,3.215 -1.704,1.838 -2.531,4.105 -2.531,6.929 0,1.952 -1.243,3.071 -3.408,3.071 -2.166,0 -3.407,-1.119 -3.407,-3.071 0,-4.32 1.398,-8.007 4.157,-10.961 2.735,-2.931 6.106,-4.734 10.026,-5.363 0.866,-0.132 1.716,-0.2 2.548,-0.2 3.105,0 5.96,0.926 8.519,2.764 3.244,2.334 5.286,5.937 6.072,10.735 C 2.526,-7.958 1.909,-3.547 0,0"
         style="fill:#005d28;fill-opacity:1;fill-rule:nonzero;stroke:none"
         transform="matrix(0.35277776,0,0,-0.35277776,146.589,194.87977)"
         clip-path="url(#clipPath16)" />
    </g>
    <g
       id="g1">
      <path
         id="path23"
         d="M 0,0 5.96,-17.121 H 6.012 L 11.939,0 h 1.279 L 5.927,-20.711 -1.279,0 Z"
         style="fill:#66c430;fill-opacity:1;fill-rule:nonzero;stroke:none"
         transform="matrix(0.35277776,0,0,-0.35277776,46.045779,210.39286)"
         clip-path="url(#clipPath24)" />
      <path
         id="path25"
         d="m 0,0 h -8.297 v -7.285 h 8.089 V -8.486 H -8.297 V -17.66 H 0 v -1.194 H -9.57 V 1.194 H 0 Z"
         style="fill:#66c430;fill-opacity:1;fill-rule:nonzero;stroke:none"
         transform="matrix(0.35277776,0,0,-0.35277776,54.891223,210.81418)"
         clip-path="url(#clipPath26)" />
      <path
         id="path27"
         d="M 0,0 H 8.459 C 8.459,-0.915 8.405,-1.752 8.293,-2.517 8.184,-3.28 7.974,-4.012 7.665,-4.712 7.355,-5.41 6.918,-6.064 6.356,-6.675 5.417,-7.695 4.271,-8.492 2.918,-9.063 1.566,-9.636 0.178,-9.921 -1.247,-9.921 c -1.362,0 -2.669,0.268 -3.917,0.805 -1.249,0.536 -2.353,1.281 -3.311,2.234 -0.959,0.952 -1.711,2.047 -2.254,3.284 -0.542,1.238 -0.814,2.535 -0.814,3.889 0,1.874 0.469,3.607 1.409,5.201 0.939,1.593 2.21,2.853 3.814,3.778 1.604,0.926 3.347,1.391 5.23,1.391 1.181,0 2.304,-0.189 3.369,-0.562 C 3.344,9.724 4.32,9.187 5.208,8.485 6.095,7.783 6.895,6.949 7.609,5.979 L 6.57,5.154 C 6.142,5.807 5.642,6.406 5.071,6.949 4.499,7.492 3.891,7.949 3.246,8.319 2.602,8.69 1.904,8.972 1.156,9.169 0.407,9.367 -0.367,9.464 -1.168,9.464 -2.757,9.464 -4.254,9.042 -5.661,8.199 -7.067,7.356 -8.187,6.234 -9.017,4.836 -9.849,3.437 -10.264,1.95 -10.264,0.37 c 0,-1.611 0.409,-3.117 1.227,-4.52 0.818,-1.401 1.926,-2.516 3.325,-3.34 1.397,-0.825 2.912,-1.236 4.544,-1.236 2.103,0 4.07,0.736 5.901,2.206 0.558,0.478 1.016,0.987 1.37,1.53 0.355,0.543 0.617,1.126 0.786,1.749 0.169,0.623 0.265,1.306 0.292,2.045 H 0 Z"
         style="fill:#66c430;fill-opacity:1;fill-rule:nonzero;stroke:none"
         transform="matrix(0.35277776,0,0,-0.35277776,59.920388,214.05949)"
         clip-path="url(#clipPath28)" />
      <path
         id="path29"
         d="m 0,0 h -8.297 v -7.285 h 8.089 V -8.486 H -8.297 V -17.66 H 0 v -1.194 H -9.57 V 1.194 H 0 Z"
         style="fill:#66c430;fill-opacity:1;fill-rule:nonzero;stroke:none"
         transform="matrix(0.35277776,0,0,-0.35277776,67.377794,210.81418)"
         clip-path="url(#clipPath30)" />
      <path
         id="path31"
         d="M 0,0 V -18.854 H -1.279 V 0 H -6.46 V 1.194 H 5.187 V 0 Z"
         style="fill:#66c430;fill-opacity:1;fill-rule:nonzero;stroke:none"
         transform="matrix(0.35277776,0,0,-0.35277776,70.334917,210.81418)"
         clip-path="url(#clipPath32)" />
      <path
         id="path33"
         d="M 0,0 -3.908,9.681 -7.842,0 Z m 0.48,-1.194 h -8.802 l -2.688,-6.597 h -1.305 L -3.908,12.926 4.467,-7.791 H 3.162 Z"
         style="fill:#66c430;fill-opacity:1;fill-rule:nonzero;stroke:none"
         transform="matrix(0.35277776,0,0,-0.35277776,76.609987,214.71713)"
         clip-path="url(#clipPath34)" />
      <path
         id="path35"
         d="m 201.15,324.561 h -1.272 v 20.048 h 1.272 z"
         style="fill:#66c430;fill-opacity:1;fill-rule:nonzero;stroke:none"
         transform="matrix(0.35277776,0,0,-0.35277776,8.4820023,331.96346)"
         clip-path="url(#clipPath36)" />
      <path
         id="path37"
         d="m 0,0 -0.909,-0.749 c -0.992,1.581 -2.346,2.371 -4.064,2.371 -0.702,0 -1.341,-0.172 -1.918,-0.516 -0.579,-0.345 -1.033,-0.811 -1.364,-1.399 -0.331,-0.59 -0.497,-1.228 -0.497,-1.915 0,-0.921 0.312,-1.64 0.935,-2.153 0.624,-0.513 1.517,-1.043 2.682,-1.594 l 3.829,-2 c 1.524,-0.959 2.286,-2.289 2.286,-3.985 0,-1.077 -0.294,-2.062 -0.883,-2.955 -0.589,-0.892 -1.365,-1.591 -2.331,-2.103 -0.965,-0.511 -1.986,-0.766 -3.064,-0.766 -1.368,0 -2.574,0.389 -3.619,1.166 -1.046,0.776 -1.806,1.825 -2.282,3.146 l 1.117,0.498 c 0.454,-1.125 1.086,-2.007 1.895,-2.651 0.81,-0.642 1.792,-0.963 2.948,-0.963 0.869,0 1.683,0.209 2.441,0.629 0.757,0.419 1.363,0.992 1.817,1.716 0.455,0.726 0.682,1.521 0.682,2.387 0,0.689 -0.197,1.28 -0.59,1.778 -0.394,0.498 -0.84,0.894 -1.338,1.189 -0.498,0.295 -1.201,0.662 -2.11,1.103 l -3.616,1.916 c -1.386,0.857 -2.078,2.053 -2.078,3.59 0,0.978 0.218,1.855 0.656,2.63 0.437,0.774 1.046,1.375 1.828,1.804 0.781,0.429 1.665,0.644 2.651,0.644 1.014,0 1.962,-0.254 2.848,-0.762 C -1.164,1.551 -0.48,0.864 0,0"
         style="fill:#66c430;fill-opacity:1;fill-rule:nonzero;stroke:none"
         transform="matrix(0.35277776,0,0,-0.35277776,84.55747,211.29272)"
         clip-path="url(#clipPath38)" />
      <path
         id="path39"
         d="m 0,0 c -1.632,0 -3.147,-0.411 -4.548,-1.233 -1.4,-0.821 -2.513,-1.935 -3.337,-3.337 -0.824,-1.403 -1.237,-2.911 -1.237,-4.525 0,-1.614 0.413,-3.124 1.237,-4.525 0.824,-1.403 1.937,-2.515 3.337,-3.336 1.401,-0.823 2.916,-1.234 4.548,-1.234 1.623,0 3.137,0.415 4.542,1.243 1.404,0.828 2.519,1.941 3.342,3.336 0.825,1.396 1.238,2.902 1.238,4.516 0,1.211 -0.24,2.374 -0.721,3.486 -0.48,1.112 -1.14,2.086 -1.977,2.922 C 5.586,-1.851 4.611,-1.194 3.5,-0.716 2.387,-0.239 1.221,0 0,0 m 0,1.196 c 1.844,0 3.566,-0.465 5.165,-1.39 1.599,-0.926 2.872,-2.181 3.817,-3.765 0.946,-1.585 1.419,-3.296 1.419,-5.136 0,-1.84 -0.473,-3.551 -1.419,-5.132 -0.945,-1.582 -2.218,-2.837 -3.817,-3.765 -1.599,-0.929 -3.321,-1.394 -5.165,-1.394 -1.844,0 -3.565,0.465 -5.165,1.394 -1.599,0.928 -2.871,2.183 -3.817,3.765 -0.945,1.581 -1.418,3.292 -1.418,5.132 0,1.381 0.27,2.697 0.811,3.947 0.542,1.252 1.296,2.355 2.266,3.312 0.969,0.955 2.085,1.7 3.346,2.233 C -2.714,0.929 -1.39,1.196 0,1.196"
         style="fill:#66c430;fill-opacity:1;fill-rule:nonzero;stroke:none"
         transform="matrix(0.35277776,0,0,-0.35277776,92.220899,210.72066)"
         clip-path="url(#clipPath40)" />
      <path
         id="path41"
         d="M 0,0 H 1.624 C 2.416,0 3.083,0.056 3.629,0.17 4.174,0.282 4.676,0.536 5.135,0.929 6.075,1.69 6.544,2.745 6.544,4.09 6.544,4.592 6.466,5.083 6.307,5.561 6.149,6.04 5.911,6.464 5.593,6.837 5.275,7.208 4.882,7.5 4.415,7.707 3.705,8.009 2.508,8.162 0.825,8.162 H 0 Z m 2.078,-1.2 6.57,-9.492 H 7.18 L 0.643,-1.2 H 0 v -9.492 H -1.272 V 9.356 h 2.499 c 1.051,0 1.928,-0.06 2.629,-0.179 C 4.558,9.058 5.204,8.781 5.798,8.35 7.147,7.396 7.823,5.96 7.823,4.038 7.823,2.909 7.58,1.95 7.093,1.163 6.605,0.375 5.928,-0.217 5.061,-0.61 4.193,-1.004 3.198,-1.2 2.078,-1.2"
         style="fill:#66c430;fill-opacity:1;fill-rule:nonzero;stroke:none"
         transform="matrix(0.35277776,0,0,-0.35277776,97.436082,213.69344)"
         clip-path="url(#clipPath42)" />
      <path
         id="path43"
         d="M 0,0 H 8.459 C 8.459,-0.915 8.404,-1.752 8.293,-2.517 8.183,-3.28 7.973,-4.012 7.665,-4.712 7.354,-5.41 6.918,-6.064 6.355,-6.675 5.417,-7.695 4.271,-8.492 2.918,-9.063 1.565,-9.636 0.177,-9.921 -1.247,-9.921 c -1.363,0 -2.669,0.268 -3.918,0.805 -1.249,0.536 -2.353,1.281 -3.311,2.234 -0.959,0.952 -1.71,2.047 -2.253,3.284 -0.543,1.238 -0.814,2.535 -0.814,3.889 0,1.874 0.469,3.607 1.409,5.201 0.938,1.593 2.21,2.853 3.814,3.778 1.604,0.926 3.346,1.391 5.229,1.391 1.181,0 2.304,-0.189 3.369,-0.562 C 3.344,9.724 4.32,9.187 5.207,8.485 6.094,7.783 6.895,6.949 7.608,5.979 L 6.57,5.154 C 6.142,5.807 5.642,6.406 5.071,6.949 4.499,7.492 3.891,7.949 3.246,8.319 2.601,8.69 1.904,8.972 1.156,9.169 0.407,9.367 -0.368,9.464 -1.168,9.464 -2.757,9.464 -4.255,9.042 -5.662,8.199 -7.068,7.356 -8.188,6.234 -9.018,4.836 -9.849,3.437 -10.264,1.95 -10.264,0.37 c 0,-1.611 0.409,-3.117 1.227,-4.52 0.818,-1.401 1.926,-2.516 3.324,-3.34 1.398,-0.825 2.913,-1.236 4.545,-1.236 2.103,0 4.069,0.736 5.901,2.206 0.558,0.478 1.015,0.987 1.37,1.53 0.354,0.543 0.616,1.126 0.785,1.749 0.169,0.623 0.266,1.306 0.292,2.045 H 0 Z"
         style="fill:#66c430;fill-opacity:1;fill-rule:nonzero;stroke:none"
         transform="matrix(0.35277776,0,0,-0.35277776,105.21409,214.05949)"
         clip-path="url(#clipPath44)" />
      <path
         id="path45"
         d="M 0,0 3.668,2.825 7.343,0 6.33,-0.765 3.668,1.28 0.961,-0.765 Z m 7.583,-15.607 -3.909,9.681 -3.933,-9.681 z m 0.48,-1.194 H -0.74 l -2.688,-6.597 h -1.305 l 8.407,20.716 8.376,-20.716 h -1.305 z"
         style="fill:#66c430;fill-opacity:1;fill-rule:nonzero;stroke:none"
         transform="matrix(0.35277776,0,0,-0.35277776,110.25045,209.21119)"
         clip-path="url(#clipPath46)" />
      <path
         id="path47"
         d="m 0,0 v -20.711 l -16.834,17.894 v -17.231 h -1.273 V 0.267 L -1.271,-17.498 V 0 Z"
         style="fill:#66c430;fill-opacity:1;fill-rule:nonzero;stroke:none"
         transform="matrix(0.35277776,0,0,-0.35277776,121.69714,210.39286)"
         clip-path="url(#clipPath48)" />
      <path
         id="path49"
         d="m 326.509,324.561 h -1.273 v 20.048 h 1.273 z"
         style="fill:#66c430;fill-opacity:1;fill-rule:nonzero;stroke:none"
         transform="matrix(0.35277776,0,0,-0.35277776,8.4820023,331.96346)"
         clip-path="url(#clipPath50)" />
      <path
         id="path51"
         d="m 0,0 v -1.752 c -0.77,0.944 -1.774,1.705 -3.012,2.287 -1.238,0.583 -2.476,0.874 -3.714,0.874 -1.229,0 -2.397,-0.245 -3.503,-0.738 -1.105,-0.49 -2.081,-1.168 -2.927,-2.031 -0.846,-0.863 -1.506,-1.853 -1.98,-2.973 -0.474,-1.12 -0.711,-2.28 -0.711,-3.484 0,-1.155 0.238,-2.271 0.714,-3.346 0.476,-1.076 1.133,-2.026 1.974,-2.853 0.874,-0.826 1.878,-1.494 3.012,-2.004 1.134,-0.507 2.274,-0.761 3.421,-0.761 0.775,0 1.591,0.131 2.448,0.392 0.857,0.261 1.664,0.627 2.421,1.093 0.758,0.468 1.377,0.991 1.857,1.571 v -1.752 c -2.004,-1.666 -4.229,-2.5 -6.674,-2.5 -1.826,0 -3.544,0.464 -5.155,1.394 -1.61,0.927 -2.895,2.181 -3.856,3.762 -0.961,1.578 -1.441,3.282 -1.441,5.109 0,1.857 0.475,3.577 1.424,5.161 0.951,1.584 2.231,2.84 3.841,3.765 1.61,0.926 3.347,1.391 5.214,1.391 0.805,0 1.602,-0.101 2.392,-0.303 0.79,-0.201 1.547,-0.496 2.273,-0.886 C -1.259,1.026 -0.597,0.554 0,0"
         style="fill:#66c430;fill-opacity:1;fill-rule:nonzero;stroke:none"
         transform="matrix(0.35277776,0,0,-0.35277776,130.80579,211.21761)"
         clip-path="url(#clipPath52)" />
      <path
         id="path53"
         d="m 0,0 c -1.632,0 -3.147,-0.411 -4.547,-1.233 -1.401,-0.821 -2.513,-1.935 -3.338,-3.337 -0.823,-1.403 -1.236,-2.911 -1.236,-4.525 0,-1.614 0.413,-3.124 1.236,-4.525 0.825,-1.403 1.937,-2.515 3.338,-3.336 1.4,-0.823 2.915,-1.234 4.547,-1.234 1.624,0 3.137,0.415 4.542,1.243 1.404,0.828 2.519,1.941 3.343,3.336 0.824,1.396 1.237,2.902 1.237,4.516 0,1.211 -0.24,2.374 -0.72,3.486 C 7.921,-4.497 7.261,-3.523 6.424,-2.687 5.587,-1.851 4.612,-1.194 3.5,-0.716 2.387,-0.239 1.221,0 0,0 m 0,1.196 c 1.845,0 3.566,-0.465 5.165,-1.39 1.599,-0.926 2.872,-2.181 3.817,-3.765 0.946,-1.585 1.419,-3.296 1.419,-5.136 0,-1.84 -0.473,-3.551 -1.419,-5.132 -0.945,-1.582 -2.218,-2.837 -3.817,-3.765 -1.599,-0.929 -3.32,-1.394 -5.165,-1.394 -1.844,0 -3.565,0.465 -5.164,1.394 -1.599,0.928 -2.872,2.183 -3.818,3.765 -0.945,1.581 -1.418,3.292 -1.418,5.132 0,1.381 0.271,2.697 0.812,3.947 0.541,1.252 1.296,2.355 2.265,3.312 0.969,0.955 2.085,1.7 3.346,2.233 1.263,0.532 2.588,0.799 3.977,0.799"
         style="fill:#66c430;fill-opacity:1;fill-rule:nonzero;stroke:none"
         transform="matrix(0.35277776,0,0,-0.35277776,135.36608,210.72066)"
         clip-path="url(#clipPath54)" />
      <path
         id="path55"
         d="M 0,0 -0.909,-0.749 C -1.9,0.832 -3.255,1.622 -4.973,1.622 -5.674,1.622 -6.313,1.45 -6.891,1.106 -7.47,0.761 -7.924,0.295 -8.255,-0.293 c -0.331,-0.59 -0.496,-1.228 -0.496,-1.915 0,-0.921 0.311,-1.64 0.935,-2.153 0.623,-0.513 1.516,-1.043 2.681,-1.594 l 3.83,-2 c 1.523,-0.959 2.285,-2.289 2.285,-3.985 0,-1.077 -0.294,-2.062 -0.883,-2.955 -0.589,-0.892 -1.365,-1.591 -2.33,-2.103 -0.965,-0.511 -1.987,-0.766 -3.065,-0.766 -1.368,0 -2.574,0.389 -3.619,1.166 -1.045,0.776 -1.806,1.825 -2.282,3.146 l 1.117,0.498 c 0.455,-1.125 1.086,-2.007 1.895,-2.651 0.81,-0.642 1.792,-0.963 2.948,-0.963 0.87,0 1.683,0.209 2.441,0.629 0.757,0.419 1.363,0.992 1.818,1.716 0.454,0.726 0.682,1.521 0.682,2.387 0,0.689 -0.198,1.28 -0.591,1.778 -0.394,0.498 -0.84,0.894 -1.338,1.189 -0.498,0.295 -1.201,0.662 -2.109,1.103 l -3.617,1.916 c -1.385,0.857 -2.078,2.053 -2.078,3.59 0,0.978 0.218,1.855 0.656,2.63 0.438,0.774 1.046,1.375 1.828,1.804 0.781,0.429 1.666,0.644 2.651,0.644 1.014,0 1.962,-0.254 2.848,-0.762 C -1.164,1.551 -0.48,0.864 0,0"
         style="fill:#66c430;fill-opacity:1;fill-rule:nonzero;stroke:none"
         transform="matrix(0.35277776,0,0,-0.35277776,143.7256,211.29272)"
         clip-path="url(#clipPath56)" />
    </g>
    <g
       id="g182"
       transform="matrix(0.26458333,0,0,0.26458333,8.4820023,121.96332)">
      <path
         id="path17"
         d="M 0,0 C 63.847,1.983 55.827,-55.514 55.827,-55.514 -5.45,-55.895 0,0 0,0"
         style="fill:#66c430;fill-opacity:1;fill-rule:nonzero;stroke:none"
         transform="matrix(1.3333333,0,0,-1.3333333,233.67053,120.49733)"
         clip-path="url(#clipPath18)" />
      <path
         id="path19"
         d="M 0,0 C 0,0 -8.02,57.497 55.827,55.514 55.827,55.514 61.276,-0.381 0,0"
         style="fill:#66c430;fill-opacity:1;fill-rule:nonzero;stroke:none"
         transform="matrix(1.3333333,0,0,-1.3333333,344.6256,194.51547)"
         clip-path="url(#clipPath20)" />
      <path
         id="path21"
         d="M 0,0 C 0,0 -46.329,34.986 0.22,78.73 0.22,78.73 43.599,43.06 0,0"
         style="fill:#66c430;fill-opacity:1;fill-rule:nonzero;stroke:none"
         transform="matrix(1.3333333,0,0,-1.3333333,327.09373,161.0096)"
         clip-path="url(#clipPath22)" />
      <path
         id="path57"
         d="m 0,0 c 0.013,-0.409 0.063,-0.808 0.063,-1.221 0,0.413 0.049,0.812 0.062,1.221 z"
         style="fill:#7a4c22;fill-opacity:1;fill-rule:nonzero;stroke:none"
         transform="matrix(1.3333333,0,0,-1.3333333,326.28253,169.99853)"
         clip-path="url(#clipPath58)" />
      <path
         id="path59"
         d="M 0,0 C -10.976,7.474 -18.186,20.063 -18.186,34.342 -18.186,20.063 -25.398,7.474 -36.374,0 -30.875,2.691 -24.719,4.24 -18.186,4.24 -11.655,4.24 -5.499,2.691 0,0"
         style="fill:#7a4c22;fill-opacity:1;fill-rule:nonzero;stroke:none"
         transform="matrix(1.3333333,0,0,-1.3333333,350.6152,217.4152)"
         clip-path="url(#clipPath60)" />
    </g>
  </g>
</svg>
